REM MD5 de74bf5a771c227ed0f5b7fc9cb5b24d
FILE "Land Before Time, The - Great Valley Racing Adventure (USA).bin" BINARY
  TRACK 01 MODE2/2352
    INDEX 01 00:00:00
  TRACK 02 AUDIO
    INDEX 00 12:12:23
    INDEX 01 12:14:23
  TRACK 03 AUDIO
    INDEX 00 14:31:07
    INDEX 01 14:33:07
  TRACK 04 AUDIO
    INDEX 00 17:01:69
    INDEX 01 17:03:69
  TRACK 05 AUDIO
    INDEX 00 19:22:45
    INDEX 01 19:24:45
REM LEADOUT 21:32:26
